<svg xmlns="http://www.w3.org/2000/svg" viewBox="0 0 32 32" width="32" height="32">
  <title>Letztes Bier — Sackkarre</title>
  <circle cx="7.6" cy="25" r="3.35" fill="#3d444c"/>
  <circle cx="7.6" cy="25" r="1.3" fill="#6d7380"/>
  <line
    x1="7.6" y1="25.2"
    x2="6.8"
    y2="5.8"
    stroke="#5c6570"
    stroke-width="3.1"
    stroke-linecap="round"
  />
  <line
    x1="7.5"
    y1="21.85"
    x2="29.2"
    y2="20.6"
    stroke="#5c6570"
    stroke-width="2.9"
    stroke-linecap="round"
  />
  <!-- Willybecher-style glass at Maß footprint (wide × tall ratio ~1.13) -->
  <path
    fill="#e8c96b"
    stroke="#000"
    stroke-width="0.35"
    stroke-linejoin="round"
    d="M11.15 21.45 L10.75 19.9 L11.05 6.85 H23.95 L24.25 19.9 L23.85 21.45 Z"
  />
  <path fill="#c9a227" d="M11.1 8.85 H23.9 V11.2 H11.1 Z"/>
  <path fill="none" stroke="#000" stroke-width="0.28" d="M10.95 6.5 H24.05"/>
  <path
    fill="none"
    stroke="#000"
    stroke-width="0.32"
    stroke-linecap="round"
    d="M23.92 7.28 C26.2 7.28 27.65 9.35 27.65 12 C27.65 14.9 26.45 18.95 24.02 20.9"
  />
  <path
    fill="#f5f5f0"
    stroke="#000"
    stroke-width="0.3"
    stroke-linejoin="round"
    d="M9.75 7.55 C9.75 5.45 11.55 3.75 14.05 3.45 C14.55 2.15 15.95 1.3 17.65 1.3
       C19.55 1.3 21.25 2.35 21.65 4.05 C23.75 4.45 25.35 6.35 25.05 8.25
       C24.75 9.95 22.85 11.25 20.65 10.95 L12.35 9.45 C10.75 9.15 9.75 8.55 9.75 7.55 Z"
  />
</svg>
